<svg xmlns="http://www.w3.org/2000/svg" xmlns:xlink="http://www.w3.org/1999/xlink" width="500" height="500" viewBox="0 0 500 500">
  <defs>
    <clipPath id="clip-SPRK_default_preset_name_custom_1">
      <rect width="500" height="500"/>
    </clipPath>
  </defs>
  <g id="SPRK_default_preset_name_custom_1" data-name="SPRK_default_preset_name_custom – 1" clip-path="url(#clip-SPRK_default_preset_name_custom_1)">
    <path id="应用" d="M209.238,44.7a28.945,28.945,0,0,1,20.936,8.468,27.776,27.776,0,0,1,8.7,20.7V191.482a29.717,29.717,0,0,1-29.64,29.64H91.62a27.776,27.776,0,0,1-20.7-8.7,28.945,28.945,0,0,1-8.468-20.936V73.864A28.917,28.917,0,0,1,91.62,44.7H209.238Zm0,235.236a28.945,28.945,0,0,1,20.936,8.469,27.776,27.776,0,0,1,8.7,20.7V427.188a27.776,27.776,0,0,1-8.7,20.7,28.945,28.945,0,0,1-20.936,8.469H91.62a28.917,28.917,0,0,1-29.169-29.169V309.1A28.917,28.917,0,0,1,91.62,279.931Zm235.706,0A28.917,28.917,0,0,1,474.114,309.1V427.188a28.917,28.917,0,0,1-29.169,29.169H327.327a28.945,28.945,0,0,1-20.936-8.469,27.776,27.776,0,0,1-8.7-20.7V309.1a27.776,27.776,0,0,1,8.7-20.7,28.945,28.945,0,0,1,20.936-8.469Z" transform="translate(-40.334 22.595)" fill="#51459e"/>
    <path id="应用-2" data-name="应用" d="M510.341,96.447a30.265,30.265,0,0,1,9.409,22.112,28.753,28.753,0,0,1-9.409,21.642l-87.507,87.507q-9.409,9.409-21.877,9.409t-21.877-9.409L291.573,140.2a29.477,29.477,0,0,1-8.939-21.642,31.061,31.061,0,0,1,8.939-22.112L379.08,8.939a31.24,31.24,0,0,1,43.754,0Z" transform="translate(-40.334 22.595)" fill="#fc9d10"/>
  </g>
</svg>
