<svg xmlns="http://www.w3.org/2000/svg" xmlns:xlink="http://www.w3.org/1999/xlink" width="500" height="500" viewBox="0 0 500 500">
  <defs>
    <clipPath id="clip-SPRK_default_preset_name_custom_1">
      <rect width="500" height="500"/>
    </clipPath>
  </defs>
  <g id="SPRK_default_preset_name_custom_1" data-name="SPRK_default_preset_name_custom – 1" clip-path="url(#clip-SPRK_default_preset_name_custom_1)">
    <g id="转速表_仪表盘_测速_速度" data-name="转速表,仪表盘,测速,速度" transform="translate(22.765 -61.243)">
      <path id="Path_1" data-name="Path 1" d="M227.366,137A227.624,227.624,0,0,0,33.137,483.085a7.061,7.061,0,0,0,6.053,3.4h377.19a7.061,7.061,0,0,0,6.053-3.4,230.353,230.353,0,0,0,12.725-23.991,227.217,227.217,0,0,0,20.413-94.331C455.527,238.841,353.332,136.779,227.366,137ZM435.158,330.427c-2.43,5.7-270.347-162-270.347-162l-101.705,55.3c-2.916-5.435-27.539,77.682-29.969,71.982-10.383-24.566-4.86,96-4.86,69.05a199.854,199.854,0,0,1,121.857-183.8c24.566-10.383-50.642,31.316-23.69,31.316s43.644-4.946,68.21,5.481c23.77,10.03,17.64,1.762,35.932,20.1,18.336,18.336,38.647-.584,48.721,23.143,10.383,24.566,147.944,76.812,147.944,103.764S445.586,305.861,435.158,330.427Z" transform="translate(0 0)" fill="#51459e"/>
      <path id="Path_3" data-name="Path 3" d="M293.906,257c-96.8.133-176.069,80.5-174.92,177.306a175.8,175.8,0,0,0,4.507,37.6,14.136,14.136,0,0,0,27.526-6.451,146.951,146.951,0,1,1,290.061-33.27,149.151,149.151,0,0,1-3.756,33.27,14.147,14.147,0,0,0,27.57,6.362A175.322,175.322,0,0,0,293.906,257Z" transform="translate(-66.407 -66.981)" fill="#fc9d10"/>
      <g id="Component_1_1" data-name="Component 1 – 1" transform="translate(170.033 294.874) rotate(-13)">
        <circle id="Ellipse_1" data-name="Ellipse 1" cx="21.257" cy="21.257" r="21.257" transform="translate(0 89.289)" fill="#fc9d10"/>
        <line id="Line_1" data-name="Line 1" y1="101" x2="100" transform="translate(21.757 11.045)" fill="none" stroke="#fc9d10" stroke-width="25"/>
        <path id="Path_4" data-name="Path 4" d="M113.016-8.333C145.535-19.8,130.031,8.806,130.031,8.806" transform="translate(0 11.045)" fill="#fc9d10" stroke="#fc9d10" stroke-width="1"/>
      </g>
    </g>
  </g>
</svg>
