<svg xmlns="http://www.w3.org/2000/svg" xmlns:xlink="http://www.w3.org/1999/xlink" width="500" height="500" viewBox="0 0 500 500">
  <defs>
    <clipPath id="clip-SPRK_default_preset_name_custom_1">
      <rect width="500" height="500"/>
    </clipPath>
  </defs>
  <g id="SPRK_default_preset_name_custom_1" data-name="SPRK_default_preset_name_custom – 1" clip-path="url(#clip-SPRK_default_preset_name_custom_1)">
    <g id="_3.1_设置" data-name="3.1 设置" transform="translate(-78.967 -88.681)">
      <path id="Path_1" data-name="Path 1" d="M550.772,294.266c-2.7-14.258-11.444-23.478-22.644-23.478h-1.942A54.944,54.944,0,0,1,471.3,215.9c0-9.564,4.589-20.47,4.767-20.9a29.672,29.672,0,0,0-10-35.868L409.275,127.5l-.835-.409c-11.362-4.927-26.913-1.774-35.385,7.053-6.131,6.323-27.267,24.353-43.4,24.353-16.338,0-37.521-18.392-43.683-24.835-8.457-8.891-23.848-12.228-35.338-7.31L191.822,158.58l-.883.562a29.625,29.625,0,0,0-10.046,35.787c.192.458,4.8,11.274,4.8,20.967a54.944,54.944,0,0,1-54.884,54.893h-2.295c-10.849,0-19.6,9.22-22.291,23.478-.2,1-4.751,25.132-4.751,44.478,0,19.321,4.55,43.441,4.751,44.437,2.7,14.267,11.442,23.5,22.644,23.5h1.942a54.943,54.943,0,0,1,54.884,54.884c0,9.629-4.606,20.493-4.782,20.91a29.644,29.644,0,0,0,9.966,35.828l55.719,31.262.851.385c11.523,5.072,27.105,1.765,35.531-7.446,7.783-8.41,28.871-25.871,44.357-25.871,16.786,0,38.4,19.547,44.631,26.415a32.348,32.348,0,0,0,23.606,10.08,29.923,29.923,0,0,0,11.875-2.408l57.774-31.839.851-.547a29.617,29.617,0,0,0,10.03-35.794c-.193-.466-4.8-11.283-4.8-20.975a54.943,54.943,0,0,1,54.885-54.884h2.264c10.863,0,19.625-9.228,22.322-23.5.192-1,4.75-25.116,4.75-44.437,0-19.347-4.557-43.476-4.75-44.479" transform="translate(0 0)" fill="#51459e"/>
      <path id="Path_2" data-name="Path 2" d="M444.93,365.633A80.767,80.767,0,1,0,525.7,446.4a80.866,80.866,0,0,0-80.771-80.771" transform="translate(-117.42 -107.973)" fill="#fc9d10"/>
    </g>
  </g>
</svg>
