<svg xmlns="http://www.w3.org/2000/svg" xmlns:xlink="http://www.w3.org/1999/xlink" width="500" height="500" viewBox="0 0 500 500">
  <defs>
    <clipPath id="clip-SPRK_default_preset_name_custom_1">
      <rect width="500" height="500"/>
    </clipPath>
  </defs>
  <g id="SPRK_default_preset_name_custom_1" data-name="SPRK_default_preset_name_custom – 1" clip-path="url(#clip-SPRK_default_preset_name_custom_1)">
    <g id="status" transform="translate(55.494 -10.317)">
      <path id="Path_1" data-name="Path 1" d="M547.273,313.344a113.034,113.034,0,0,0-113.1,113.1c0,62.7,50.778,112.712,113.1,112.712a113.034,113.034,0,0,0,113.1-113.1c0-62.7-50.778-112.712-113.1-112.712Zm-10,176.954c-3.847,3.847-10.386,3.847-14.618,0l-8.078-8.078-48.085-48.085c-3.847-3.847-3.847-10.386,0-14.618l8.078-8.078c3.847-3.847,10.386-3.847,14.618,0l40.776,40.776L606.9,375.278c3.847-3.847,10.386-3.847,14.618,0l8.078,8.078c3.847,3.847,3.847,10.386,0,14.618L537.271,490.3Z" transform="translate(-271.07 -127.224)" fill="#fc9d10"/>
      <path id="Path_2" data-name="Path 2" d="M276.2,142.266c36.545,0,70.012,12.695,96.94,33.467V135.342c0-14.618-14.233-25.774-31.544-25.774H31.929c-17.7,0-31.544,11.156-31.544,25.774V268.058H122.329A156.538,156.538,0,0,1,276.2,142.266ZM146.949,388.079H28.851c-7.694,0-14.233,5.386-14.233,11.54s6.54,11.54,14.233,11.54H166.568a141.427,141.427,0,0,1-19.619-23.081Zm-27.7-96.556H0V304.6c0,14.618,14.233,26.158,31.544,26.158h90.4a168.681,168.681,0,0,1-3.077-31.544A54.18,54.18,0,0,0,119.252,291.523Z" fill="#51459e"/>
    </g>
  </g>
</svg>
